<svg width="32" height="32" viewBox="0 0 32 32" fill="none" xmlns="http://www.w3.org/2000/svg">
<path d="M16.8047 14.9014L16.8096 15.0928L16.9365 14.9502L21.1328 10.207L17.4268 15.3955L17.3418 15.5146H26.0596L17.5928 16.1729L17.4404 16.1855L17.543 16.2988L21.5684 20.7412L16.9287 16.7305L16.8086 16.626L16.8047 16.7852L16.5059 30.4072L16.1953 16.7852L16.1914 16.626L16.0713 16.7305L11.4307 20.7412L15.457 16.2988L15.5596 16.1855L15.4072 16.1729L6.94043 15.5146H15.6582L15.5732 15.3955L11.874 10.2021L16.0635 14.9492L16.1904 15.0928L16.1953 14.9023L16.5059 2.24512L16.8047 14.9014Z" fill="#CC0000" stroke="black" stroke-width="0.15"/>
</svg>
